<svg width="16" height="18" viewBox="0 0 16 18" fill="none" xmlns="http://www.w3.org/2000/svg">
<path id="&#208;&#152;&#208;&#186;&#208;&#190;&#208;&#189;&#208;&#186;&#208;&#176;" d="M10.4304 17.5C10.7053 17.5 10.8933 17.31 10.9222 17.0177C11.3997 13.1148 11.5877 13.0124 15.5082 12.3693C15.812 12.3255 16 12.1647 16 11.8869C16 11.6092 15.812 11.4338 15.5661 11.3899C11.6166 10.6298 11.3997 10.6445 10.9222 6.74162C10.8933 6.44927 10.7053 6.25925 10.4304 6.25925C10.17 6.25925 9.9819 6.44927 9.93857 6.72701C9.44663 10.6883 9.30195 10.8199 5.29469 11.3899C5.04879 11.4192 4.86077 11.6092 4.86077 11.8869C4.86077 12.15 5.04879 12.3255 5.29469 12.3693C9.30195 13.144 9.43219 13.144 9.93857 17.0468C9.9819 17.31 10.17 17.5 10.4304 17.5ZM3.51531 7.60404C3.689 7.60404 3.77579 7.50172 3.80467 7.34094C4.25316 4.89983 4.23872 4.84136 6.75583 4.35899C6.91495 4.32975 7.03075 4.22743 7.03075 4.05203C7.03075 3.87661 6.91495 3.77429 6.75583 3.74505C4.23872 3.23345 4.3255 3.17498 3.80467 0.763113C3.77579 0.602322 3.689 0.5 3.51531 0.5C3.34174 0.5 3.24052 0.602322 3.21151 0.763113C2.70524 3.17498 2.79203 3.23345 0.274796 3.74505C0.101228 3.77429 0 3.87661 0 4.05203C0 4.22743 0.101228 4.32975 0.274796 4.35899C2.79203 4.8706 2.76314 4.89983 3.21151 7.34094C3.24052 7.50172 3.34174 7.60404 3.51531 7.60404Z" fill="#FFE500"/>
</svg>
