<svg width="56" height="60" viewBox="0 0 56 60" fill="none" xmlns="http://www.w3.org/2000/svg">
<g id="Star">
<g id="Polygon" filter="url(#filter0_bddd_171_466)">
<path d="M17 11C20.6645 7.33548 22.4968 5.50322 24.5804 4.745C26.7893 3.94118 29.2107 3.94118 31.4196 4.745C33.5032 5.50322 35.3355 7.33548 39 11C42.6645 14.6645 44.4968 16.4968 45.255 18.5804C46.0588 20.7893 46.0588 23.2107 45.255 25.4196C44.4968 27.5032 42.6645 29.3355 39 33C35.3355 36.6645 33.5032 38.4968 31.4196 39.255C29.2107 40.0588 26.7893 40.0588 24.5804 39.255C22.4968 38.4968 20.6645 36.6645 17 33C13.3355 29.3355 11.5032 27.5032 10.745 25.4196C9.94118 23.2107 9.94118 20.7893 10.745 18.5804C11.5032 16.4968 13.3355 14.6645 17 11Z" fill="black" fill-opacity="0.5" shape-rendering="crispEdges"/>
<path d="M17.3536 11.3536C19.1912 9.5159 20.55 8.15759 21.7089 7.16188C22.8638 6.16958 23.7899 5.56473 24.7514 5.21485C26.8498 4.45123 29.1502 4.45123 31.2486 5.21485C32.2101 5.56473 33.1362 6.16958 34.2911 7.16188C35.45 8.15759 36.8088 9.5159 38.6464 11.3536C40.4841 13.1912 41.8424 14.55 42.8381 15.7089C43.8304 16.8638 44.4353 17.7899 44.7851 18.7514C45.5488 20.8498 45.5488 23.1502 44.7851 25.2486C44.4353 26.2101 43.8304 27.1362 42.8381 28.2911C41.8424 29.45 40.4841 30.8088 38.6464 32.6464C36.8088 34.4841 35.45 35.8424 34.2911 36.8381C33.1362 37.8304 32.2101 38.4353 31.2486 38.7851C29.1502 39.5488 26.8498 39.5488 24.7514 38.7851C23.7899 38.4353 22.8638 37.8304 21.7089 36.8381C20.55 35.8424 19.1912 34.4841 17.3536 32.6464C15.5159 30.8088 14.1576 29.45 13.1619 28.2911C12.1696 27.1362 11.5647 26.2101 11.2149 25.2486C10.4512 23.1502 10.4512 20.8498 11.2149 18.7514C11.5647 17.7899 12.1696 16.8638 13.1619 15.7089C14.1576 14.55 15.5159 13.1912 17.3536 11.3536Z" stroke="white" stroke-opacity="0.07" shape-rendering="crispEdges"/>
<path d="M17.3536 11.3536C19.1912 9.5159 20.55 8.15759 21.7089 7.16188C22.8638 6.16958 23.7899 5.56473 24.7514 5.21485C26.8498 4.45123 29.1502 4.45123 31.2486 5.21485C32.2101 5.56473 33.1362 6.16958 34.2911 7.16188C35.45 8.15759 36.8088 9.5159 38.6464 11.3536C40.4841 13.1912 41.8424 14.55 42.8381 15.7089C43.8304 16.8638 44.4353 17.7899 44.7851 18.7514C45.5488 20.8498 45.5488 23.1502 44.7851 25.2486C44.4353 26.2101 43.8304 27.1362 42.8381 28.2911C41.8424 29.45 40.4841 30.8088 38.6464 32.6464C36.8088 34.4841 35.45 35.8424 34.2911 36.8381C33.1362 37.8304 32.2101 38.4353 31.2486 38.7851C29.1502 39.5488 26.8498 39.5488 24.7514 38.7851C23.7899 38.4353 22.8638 37.8304 21.7089 36.8381C20.55 35.8424 19.1912 34.4841 17.3536 32.6464C15.5159 30.8088 14.1576 29.45 13.1619 28.2911C12.1696 27.1362 11.5647 26.2101 11.2149 25.2486C10.4512 23.1502 10.4512 20.8498 11.2149 18.7514C11.5647 17.7899 12.1696 16.8638 13.1619 15.7089C14.1576 14.55 15.5159 13.1912 17.3536 11.3536Z" stroke="url(#paint0_linear_171_466)" style="mix-blend-mode:overlay" shape-rendering="crispEdges"/>
</g>
<path id="Star 1" d="M27.303 12.4146C27.9032 11.6199 29.0968 11.6199 29.697 12.4146L32.3627 15.9443C32.6618 16.3403 33.0721 16.6384 33.5412 16.8005L37.7219 18.245C38.6632 18.5702 39.032 19.7055 38.4617 20.5218L35.9285 24.1478C35.6443 24.5547 35.4876 25.037 35.4784 25.5333L35.3965 29.9557C35.378 30.9514 34.4123 31.653 33.4597 31.3629L29.2284 30.0742C28.7536 29.9295 28.2464 29.9295 27.7716 30.0742L23.5403 31.3629C22.5877 31.653 21.622 30.9514 21.6035 29.9557L21.5216 25.5333C21.5124 25.037 21.3557 24.5547 21.0715 24.1478L18.5383 20.5218C17.968 19.7055 18.3368 18.5702 19.2781 18.245L23.4588 16.8005C23.9279 16.6384 24.3382 16.3403 24.6373 15.9442L27.303 12.4146Z" fill="#FFD789" stroke="url(#paint1_linear_171_466)"/>
</g>
<defs>
<filter id="filter0_bddd_171_466" x="-9.85791" y="-15.8574" width="75.7158" height="75.7148" filterUnits="userSpaceOnUse" color-interpolation-filters="sRGB">
<feFlood flood-opacity="0" result="BackgroundImageFix"/>
<feGaussianBlur in="BackgroundImageFix" stdDeviation="10"/>
<feComposite in2="SourceAlpha" operator="in" result="effect1_backgroundBlur_171_466"/>
<feColorMatrix in="SourceAlpha" type="matrix" values="0 0 0 0 0 0 0 0 0 0 0 0 0 0 0 0 0 0 127 0" result="hardAlpha"/>
<feOffset dy="10"/>
<feGaussianBlur stdDeviation="5"/>
<feComposite in2="hardAlpha" operator="out"/>
<feColorMatrix type="matrix" values="0 0 0 0 0 0 0 0 0 0 0 0 0 0 0 0 0 0 0.1 0"/>
<feBlend mode="normal" in2="effect1_backgroundBlur_171_466" result="effect2_dropShadow_171_466"/>
<feColorMatrix in="SourceAlpha" type="matrix" values="0 0 0 0 0 0 0 0 0 0 0 0 0 0 0 0 0 0 127 0" result="hardAlpha"/>
<feOffset dy="4"/>
<feGaussianBlur stdDeviation="2"/>
<feComposite in2="hardAlpha" operator="out"/>
<feColorMatrix type="matrix" values="0 0 0 0 0 0 0 0 0 0 0 0 0 0 0 0 0 0 0.05 0"/>
<feBlend mode="normal" in2="effect2_dropShadow_171_466" result="effect3_dropShadow_171_466"/>
<feColorMatrix in="SourceAlpha" type="matrix" values="0 0 0 0 0 0 0 0 0 0 0 0 0 0 0 0 0 0 127 0" result="hardAlpha"/>
<feOffset dy="1"/>
<feComposite in2="hardAlpha" operator="out"/>
<feColorMatrix type="matrix" values="0 0 0 0 0 0 0 0 0 0 0 0 0 0 0 0 0 0 0.05 0"/>
<feBlend mode="normal" in2="effect3_dropShadow_171_466" result="effect4_dropShadow_171_466"/>
<feBlend mode="normal" in="SourceGraphic" in2="effect4_dropShadow_171_466" result="shape"/>
</filter>
<linearGradient id="paint0_linear_171_466" x1="22.6375" y1="30.5191" x2="42.2969" y2="2.67404" gradientUnits="userSpaceOnUse">
<stop stop-color="white" stop-opacity="0"/>
<stop offset="1" stop-color="white"/>
</linearGradient>
<linearGradient id="paint1_linear_171_466" x1="28.5" y1="10" x2="28.5" y2="35" gradientUnits="userSpaceOnUse">
<stop stop-color="white"/>
<stop offset="1" stop-color="white" stop-opacity="0"/>
</linearGradient>
</defs>
</svg>
